<svg xmlns="http://www.w3.org/2000/svg" version="1.1" viewBox="61.44 368.64 903.168 243.712" style="max-height: 500px" width="903.168" height="243.712">
<path transform="translate(780.875,453.6875)" fill="#D8D8D7" d="M0 0 C8.39929027 8.09877899 11.1492191 17.25375195 11.42797852 28.703125 C11.46954111 31.65623105 11.48755405 34.60916385 11.50390625 37.5625 C11.52010989 39.14616899 11.53729281 40.72982824 11.55540466 42.31347656 C11.60088868 46.46626241 11.63578943 50.61906203 11.66760254 54.77197266 C11.71964953 61.41738398 11.78507507 68.06265016 11.85581779 74.70788574 C11.87845526 77.01650733 11.89485148 79.32511117 11.91053772 81.63378906 C11.92395912 83.06315298 11.93757516 84.49251508 11.95141602 85.921875 C11.96092789 87.15905273 11.97043976 88.39623047 11.98023987 89.67089844 C11.92739838 96.94979883 11.92739838 96.94979883 14.8125 103.1875 C17.52178079 104.50552849 20.23735067 105.45933088 23.125 106.3125 C23.125 108.6225 23.125 110.9325 23.125 113.3125 C5.305 113.3125 -12.515 113.3125 -30.875 113.3125 C-31.875 108.3125 -31.875 108.3125 -30.875 106.3125 C-28.87890625 105.53125 -28.87890625 105.53125 -26.4375 104.8125 C-22.78117965 103.73933488 -22.78117965 103.73933488 -19.875 101.3125 C-18.79213601 97.42827372 -18.74285551 93.67700804 -18.72973633 89.66137695 C-18.72637772 89.01346695 -18.7230191 88.36555695 -18.71955872 87.69801331 C-18.71009611 85.56558285 -18.70810765 83.43323138 -18.70703125 81.30078125 C-18.70381425 79.80730661 -18.70044985 78.31383227 -18.69694519 76.82035828 C-18.6909648 73.69085969 -18.68910405 70.56138866 -18.68969727 67.43188477 C-18.68979856 63.44553261 -18.67617566 59.45935989 -18.65892506 55.47305012 C-18.64773618 52.38701079 -18.6457802 49.30101381 -18.64630699 46.21495628 C-18.6451361 44.74673027 -18.64076509 43.27850283 -18.63297462 41.81029701 C-18.38069129 25.65441195 -18.38069129 25.65441195 -24.875 11.3125 C-29.94863058 7.18251568 -35.48357569 6.68513 -41.85546875 6.93359375 C-46.72777997 7.54499632 -50.54886469 9.06055194 -54.875 11.3125 C-55.66876541 11.70176666 -56.46253082 12.09103333 -57.28034973 12.49209595 C-60.08091213 14.19970017 -61.88502161 15.68582704 -63.875 18.3125 C-65.16538982 23.90686571 -64.97413361 29.37407477 -64.82421875 35.0859375 C-64.81248825 36.73586875 -64.80447787 38.38583024 -64.80000305 40.03579712 C-64.78172503 43.4880122 -64.73461247 46.93811569 -64.66381836 50.38964844 C-64.57352007 54.79313731 -64.53022155 59.19534543 -64.50557232 63.59964561 C-64.48068283 67.82441513 -64.43571294 72.04888736 -64.38671875 76.2734375 C-64.37841223 77.06931652 -64.37010571 77.86519554 -64.36154747 78.68519211 C-64.29820035 90.65289007 -64.29820035 90.65289007 -61.875 102.3125 C-59.34610439 104.22288637 -59.34610439 104.22288637 -56.25 104.875 C-54.74566406 105.31005859 -54.74566406 105.31005859 -53.2109375 105.75390625 C-52.44007813 105.93824219 -51.66921875 106.12257813 -50.875 106.3125 C-50.875 108.6225 -50.875 110.9325 -50.875 113.3125 C-70.015 113.3125 -89.155 113.3125 -108.875 113.3125 C-108.215 111.0025 -107.555 108.6925 -106.875 106.3125 C-104.81640625 105.21875 -104.81640625 105.21875 -102.4375 104.8125 C-100.02281004 104.51636625 -100.02281004 104.51636625 -97.875 103.3125 C-95.17501709 98.19735296 -94.44189287 93.91893781 -94.50268555 88.13330078 C-94.49903488 87.34694244 -94.49538422 86.56058411 -94.49162292 85.75039673 C-94.48356451 83.16931066 -94.49709048 80.5888619 -94.51171875 78.0078125 C-94.51223803 76.20091757 -94.51171771 74.39402206 -94.51020813 72.58712769 C-94.51029765 68.80620857 -94.52068378 65.02550357 -94.53881836 61.24462891 C-94.56147204 56.41746577 -94.56205323 51.59061601 -94.55530071 46.76341438 C-94.55194557 43.03316503 -94.55862036 39.30298605 -94.56842995 35.57275009 C-94.57225808 33.79389693 -94.57344015 32.01503591 -94.5718441 30.23617935 C-94.57146981 27.7407997 -94.58419544 25.24580901 -94.6003418 22.75048828 C-94.59786438 22.02708252 -94.59538696 21.30367676 -94.59283447 20.55834961 C-94.64720293 15.24631607 -95.59899081 10.47014378 -96.875 5.3125 C-100.505 4.3225 -104.135 3.3325 -107.875 2.3125 C-107.875 0.3325 -107.875 -1.6475 -107.875 -3.6875 C-104.83385579 -5.20807211 -101.57941342 -5.16678521 -98.234375 -5.44140625 C-97.09467255 -5.53916603 -97.09467255 -5.53916603 -95.9319458 -5.63890076 C-94.32149602 -5.77612521 -92.71087299 -5.91132903 -91.10009766 -6.04467773 C-88.64830874 -6.24806642 -86.19719867 -6.45846658 -83.74609375 -6.66992188 C-82.17972302 -6.80250364 -80.61331775 -6.93467805 -79.046875 -7.06640625 C-77.95436432 -7.16013268 -77.95436432 -7.16013268 -76.83978271 -7.25575256 C-72.81636232 -7.58533385 -68.92619532 -7.6875 -64.875 -7.6875 C-64.38 -1.2525 -64.38 -1.2525 -63.875 5.3125 C-60.14140148 3.21235083 -56.47573791 1.07078811 -52.875 -1.25 C-37.18440955 -10.9931095 -14.77601814 -12.24019985 0 0 Z"/>
<path transform="translate(85,401)" fill="#D8D8D7" d="M0 0 C7.80575195 -0.02312792 15.61149595 -0.04091738 23.41727352 -0.05181217 C27.0414596 -0.05704002 30.6656223 -0.06413587 34.28979492 -0.07543945 C37.78459975 -0.08627184 41.27938204 -0.09227758 44.77420235 -0.09487724 C46.76239389 -0.09763551 48.75057631 -0.10544688 50.73875427 -0.11329651 C51.93992386 -0.11337204 53.14109344 -0.11344757 54.37866211 -0.11352539 C55.97417152 -0.11685631 55.97417152 -0.11685631 57.60191345 -0.12025452 C60 0 60 0 61 1 C61 2.98 61 4.96 61 7 C56.38 7.99 51.76 8.98 47 10 C46.22914684 13.8542658 45.87289161 16.80427005 45.86628723 20.65478516 C45.86202225 21.78192932 45.85775726 22.90907349 45.85336304 24.07037354 C45.85381622 25.29754089 45.85426941 26.52470825 45.85473633 27.7890625 C45.85137772 29.08873962 45.8480191 30.38841675 45.84455872 31.72747803 C45.83574088 35.28526016 45.83338159 38.84301823 45.83274293 42.40081024 C45.83203139 44.6245702 45.82989514 46.84832407 45.82724571 49.07208252 C45.81800098 56.83256417 45.8139099 64.59302865 45.81469727 72.35351562 C45.81529845 79.58409751 45.80473649 86.81460489 45.7889536 94.04516792 C45.77587688 100.25761325 45.7705134 106.47003422 45.77115268 112.68249321 C45.77140754 116.39099627 45.76856236 120.09943303 45.75797462 123.80792236 C45.74649234 127.94231262 45.75104125 132.07653572 45.75708008 136.2109375 C45.75146057 137.43810486 45.74584106 138.66527222 45.74005127 139.92962646 C45.74424576 141.05677063 45.74844025 142.18391479 45.75276184 143.34521484 C45.75221707 144.32227386 45.75167231 145.29933289 45.75111103 146.30599976 C46.02165874 149.23443643 46.6776572 151.37855169 48 154 C58.7791631 158.89398784 77.88081644 156.80361299 89 154 C97.04453724 150.84398128 102.12441892 145.64173398 106 138 C107.68194305 133.83105101 109.20128504 129.60779524 110.60424805 125.3371582 C110.87406494 124.53366943 111.14388184 123.73018066 111.421875 122.90234375 C111.65487305 122.17523193 111.88787109 121.44812012 112.12792969 120.69897461 C113 119 113 119 116 118 C118.35188447 118.59793673 120.68925595 119.25881795 123 120 C122.15085662 126.56925717 121.2945803 133.13755469 120.43212891 139.70507812 C120.14679507 141.88070832 119.86259282 144.05648726 119.57958984 146.23242188 C119.18231831 149.28052657 118.7793816 152.32783147 118.375 155.375 C118.25213623 156.3252002 118.12927246 157.27540039 118.00268555 158.25439453 C117.88578369 159.12692871 117.76888184 159.99946289 117.6484375 160.8984375 C117.49640869 162.05351807 117.49640869 162.05351807 117.34130859 163.23193359 C117 165 117 165 116 166 C113.161293 166.17616745 110.34603131 166.28558188 107.50390625 166.3515625 C106.59599838 166.37516846 105.68809052 166.39877441 104.75267029 166.4230957 C101.689404 166.49817238 98.62605414 166.56281523 95.5625 166.625 C94.5108667 166.64745789 93.4592334 166.66991577 92.37573242 166.6930542 C72.65946628 167.09350625 52.960496 166.95864429 33.24457932 166.65892792 C30.99380778 166.6249064 28.74301635 166.59255855 26.49221802 166.56036377 C22.93146903 166.50846652 19.37087782 166.45027713 15.8103199 166.3866272 C13.84831763 166.35219115 11.88624758 166.32168886 9.92417908 166.29125977 C8.75939529 166.26813721 7.59461151 166.24501465 6.39453125 166.22119141 C5.37206299 166.20263092 4.34959473 166.18407043 3.29614258 166.16494751 C1 166 1 166 0 165 C-0.04063832 163.33382885 -0.042721 161.66611905 0 160 C0.77085938 159.70867187 1.54171875 159.41734375 2.3359375 159.1171875 C3.33882813 158.70726562 4.34171875 158.29734375 5.375 157.875 C6.37273437 157.48054687 7.37046875 157.08609375 8.3984375 156.6796875 C11.7997522 154.48364347 11.98770999 152.86132307 13 149 C13.29243573 146.18294553 13.29243573 146.18294553 13.24723816 143.26965332 C13.25143265 142.1509938 13.25562714 141.03233429 13.25994873 139.879776 C13.25432922 138.6671257 13.24870972 137.4544754 13.24291992 136.20507812 C13.24481827 134.91661484 13.24671661 133.62815155 13.24867249 132.30064392 C13.25350529 128.77793385 13.24588459 125.25535115 13.23571944 121.73265648 C13.22691168 118.0399122 13.22869692 114.34717159 13.2290802 110.65441895 C13.22814469 104.45399861 13.21947629 98.25362732 13.20581055 92.05322266 C13.19008627 84.89252695 13.18481253 77.73188492 13.1855461 70.57117319 C13.18622251 62.93647476 13.17927602 55.30179692 13.1700995 47.66710472 C13.16797198 45.47208452 13.16725883 43.27706765 13.16686058 41.08204651 C13.16566596 36.98631273 13.15593991 32.8906419 13.14526367 28.79492188 C13.14571686 27.58227158 13.14617004 26.36962128 13.14663696 25.120224 C13.14237198 24.00156448 13.13810699 22.88290497 13.13371277 21.73034668 C13.13203692 20.76288261 13.13036108 19.79541855 13.12863445 18.79863739 C13.03021504 15.44785433 13.03021504 15.44785433 12 10 C6.06 8.515 6.06 8.515 0 7 C-1 3 -1 3 0 0 Z"/>
<path transform="translate(486.513671875,400.87060546875)" fill="#D8D8D8" d="M0 0 C1.17792114 -0.00315216 2.35584229 -0.00630432 3.56945801 -0.009552 C4.85171265 -0.00752777 6.13396729 -0.00550354 7.45507812 -0.00341797 C8.76085815 -0.00437469 10.06663818 -0.00533142 11.4119873 -0.00631714 C14.17945535 -0.0077938 16.94689116 -0.00564058 19.71435547 -0.00097656 C23.26895462 0.00472073 26.82347827 0.00144155 30.37807465 -0.00454903 C33.75791526 -0.00902294 37.13773536 -0.00589433 40.51757812 -0.00341797 C41.79983276 -0.0054422 43.0820874 -0.00746643 44.40319824 -0.009552 C46.17007996 -0.00482376 46.17007996 -0.00482376 47.97265625 0 C49.0155481 0.00079559 50.05843994 0.00159119 51.13293457 0.00241089 C53.48632812 0.12939453 53.48632812 0.12939453 54.48632812 1.12939453 C54.52696645 2.79556568 54.52904913 4.46327548 54.48632812 6.12939453 C53.88304687 6.32275391 53.27976562 6.51611328 52.65820312 6.71533203 C51.459375 7.10591797 51.459375 7.10591797 50.23632812 7.50439453 C49.44742188 7.75962891 48.65851562 8.01486328 47.84570312 8.27783203 C43.35563972 9.71930401 43.35563972 9.71930401 40.48632812 13.12939453 C40.38438489 14.94473172 40.34684541 16.76381966 40.3391571 18.58200073 C40.3320018 19.74012268 40.3248465 20.89824463 40.31747437 22.09146118 C40.31478546 23.36838837 40.31209656 24.64531555 40.30932617 25.9609375 C40.30306226 27.31433284 40.29641553 28.66772645 40.28941345 30.02111816 C40.27199884 33.70296308 40.26145078 37.384795 40.25320792 41.06667089 C40.24805948 43.36595352 40.24198372 45.6652321 40.23569679 47.96451187 C40.21664471 55.15555963 40.20241277 62.3465971 40.19408482 69.53766525 C40.18430674 77.84413973 40.15797264 86.15034813 40.11758393 94.45672882 C40.08745025 100.87376601 40.07261864 107.29072681 40.06930381 113.70783341 C40.06695045 117.5421981 40.05795331 121.37627854 40.03284264 125.21056747 C40.00960412 128.8172344 40.00531124 132.42342906 40.01560402 136.03015137 C40.01633736 137.98556552 39.99721706 139.94095547 39.97753906 141.89627075 C39.98448288 143.06003235 39.9914267 144.22379395 39.99858093 145.42282104 C39.99619258 146.43419569 39.99380423 147.44557034 39.9913435 148.4875927 C40.62106962 151.84852867 41.84457847 153.02777132 44.48632812 155.12939453 C48.08183017 156.08006965 51.77726828 156.02497791 55.48632812 156.12939453 C56.61167969 156.16935547 57.73703125 156.20931641 58.89648438 156.25048828 C70.21392838 156.46355201 82.35351702 156.28885828 91.31835938 148.54736328 C98.62302709 140.98806662 102.05866921 130.66074772 105.62695312 120.95751953 C106.48632812 119.12939453 106.48632812 119.12939453 108.48632812 118.12939453 C110.83573343 118.73699935 113.171619 119.40068981 115.48632812 120.12939453 C115.40068604 120.84369629 115.31504395 121.55799805 115.22680664 122.29394531 C114.8307569 125.6137032 114.43892602 128.93393188 114.04882812 132.25439453 C113.90904541 133.44387695 113.7692627 134.63335938 113.62524414 135.85888672 C112.79715965 143.03856062 112.1036411 150.17286061 111.79492188 157.39501953 C111.48632812 160.12939453 111.48632812 160.12939453 109.48632812 166.12939453 C71.20632813 166.12939453 32.92632813 166.12939453 -6.51367188 166.12939453 C-6.51367188 164.14939453 -6.51367188 162.16939453 -6.51367188 160.12939453 C-5.60875 159.85675781 -5.60875 159.85675781 -4.68554688 159.57861328 C1.42454462 157.80030102 1.42454462 157.80030102 6.48632812 154.12939453 C7.55991087 150.9234269 7.61202484 147.92029124 7.61331177 144.55690002 C7.61613159 143.42271637 7.61895142 142.28853271 7.62185669 141.11997986 C7.61983246 139.87986649 7.61780823 138.63975311 7.61572266 137.36206055 C7.61747498 136.05277588 7.61922729 134.74349121 7.62103271 133.39453125 C7.62559083 129.80569446 7.62382402 126.21688643 7.62065363 122.62804914 C7.61812114 118.87076061 7.6204701 115.11347454 7.62203979 111.35618591 C7.62385911 105.04547687 7.62146164 98.73477953 7.61669922 92.42407227 C7.61125941 85.13161676 7.61301817 77.83918922 7.61852562 70.54673439 C7.62306632 64.28335537 7.62370254 58.01998475 7.62108696 51.75660461 C7.61952916 48.01680953 7.61931678 44.27702759 7.62262344 40.53723335 C7.62605322 36.36684646 7.62129675 32.19650762 7.61572266 28.02612305 C7.61774689 26.78803391 7.61977112 25.54994476 7.62185669 24.27433777 C7.61903687 23.13733429 7.61621704 22.00033081 7.61331177 20.82887268 C7.61293474 19.8431405 7.61255772 18.85740831 7.61216927 17.84180546 C7.48837632 15.17354181 7.0830677 12.72922133 6.48632812 10.12939453 C5.63167969 9.92443359 4.77703125 9.71947266 3.89648438 9.50830078 C2.79175781 9.23888672 1.68703125 8.96947266 0.54882812 8.69189453 C-0.55332031 8.42505859 -1.65546875 8.15822266 -2.79101562 7.88330078 C-5.51367188 7.12939453 -5.51367188 7.12939453 -6.51367188 6.12939453 C-6.63867188 3.62939453 -6.63867188 3.62939453 -6.51367188 1.12939453 C-4.770678 -0.61359934 -2.36960935 0.00180771 0 0 Z"/>
<path transform="translate(411.921875,444.84375)" fill="#D8D8D8" d="M0 0 C14.34354655 -0.64707729 30.10064313 3.63782147 41.015625 13.21875 C51.40760963 24.87676322 54.63071328 40.86534709 53.94921875 56.0234375 C53.36042962 61.87394538 53.36042962 61.87394538 52.078125 63.15625 C49.73558718 63.25117722 47.42266396 63.28184791 45.07983398 63.26977539 C43.98233826 63.26999443 43.98233826 63.26999443 42.8626709 63.2702179 C40.43315716 63.26951867 38.00371917 63.26172585 35.57421875 63.25390625 C33.89412986 63.2520421 32.21404043 63.25061819 30.53395081 63.24961853 C26.10338857 63.24579307 21.6728589 63.23596256 17.24230957 63.22491455 C12.72469524 63.21470103 8.20707566 63.21012104 3.68945312 63.20507812 C-5.18100393 63.19434031 -14.05143676 63.17726356 -22.921875 63.15625 C-22.7852854 65.71132336 -22.642468 68.26579636 -22.49609375 70.8203125 C-22.45834839 71.53840088 -22.42060303 72.25648926 -22.38171387 72.99633789 C-21.70281153 84.58072994 -17.73927686 94.91385309 -9.171875 103.03125 C-0.50692568 109.9468605 8.18124678 111.17195441 19.078125 110.15625 C28.91924175 108.49547576 36.79802558 103.50971502 42.7890625 95.57421875 C44.078125 94.15625 44.078125 94.15625 47.078125 93.15625 C49.765625 95.09375 49.765625 95.09375 52.078125 97.15625 C51.62818364 101.88928703 49.46956888 104.60567218 46.328125 107.96875 C45.842229 108.49138428 45.35633301 109.01401855 44.85571289 109.55249023 C33.94117812 120.81324339 20.43258544 125.8876333 4.953125 126.34375 C-11.89987686 126.05417952 -28.1001106 121.49134135 -40.046875 109.15625 C-52.55685867 94.3240538 -56.11367789 75.07558686 -54.921875 56.15625 C-53.10811324 38.67191126 -46.54158539 22.68062033 -32.921875 11.15625 C-23.16621768 3.91062458 -11.94150346 0.97085394 0 0 Z M-15.171875 17.28125 C-23.01194828 27.4435189 -23.921875 40.70190609 -23.921875 53.15625 C-8.081875 53.15625 7.758125 53.15625 24.078125 53.15625 C24.36923814 31.85536454 24.36923814 31.85536454 14.52734375 13.5625 C11.60337322 11.44696577 8.62940217 10.48660136 5.078125 10.15625 C4.07265625 10.06150391 4.07265625 10.06150391 3.046875 9.96484375 C-4.48584838 9.56499028 -9.97902904 11.7760524 -15.171875 17.28125 Z"/>
<path transform="translate(363.875,394.6875)" fill="#D8D8D8" d="M0 0 C3.8409369 2.84229331 4.89808319 4.71156197 6.125 9.3125 C6.29317387 13.2243704 5.70951315 16.36266613 3.625 19.75 C-0.06983941 22.05927463 -3.53322811 22.74980077 -7.875 22.3125 C-10.69976366 20.27604248 -12.32890041 18.07967477 -14.33203125 15.265625 C-18.01320075 9.77922374 -18.01320075 9.77922374 -23.875 7.3125 C-27.71021519 7.27475182 -30.8919497 7.3928723 -33.8125 10.125 C-36.1453442 14.92791453 -36.08303707 19.75970335 -36.19140625 25.015625 C-36.21218735 25.85341492 -36.23296844 26.69120483 -36.25437927 27.55438232 C-36.3196255 30.22367356 -36.37864358 32.89306098 -36.4375 35.5625 C-36.48070894 37.37500984 -36.52432399 39.18751005 -36.56835938 41 C-36.67528129 45.43740209 -36.77661866 49.87490068 -36.875 54.3125 C-36.18873535 54.30726318 -35.5024707 54.30202637 -34.79541016 54.29663086 C-31.69694936 54.27589044 -28.59850314 54.26284924 -25.5 54.25 C-24.41976562 54.24162109 -23.33953125 54.23324219 -22.2265625 54.22460938 C-21.1953125 54.22138672 -20.1640625 54.21816406 -19.1015625 54.21484375 C-18.14846191 54.20960693 -17.19536133 54.20437012 -16.21337891 54.19897461 C-13.875 54.3125 -13.875 54.3125 -11.875 55.3125 C-11.83258277 57.64544775 -11.83407063 59.97952567 -11.875 62.3125 C-13.48457209 63.92207209 -15.27119442 63.49681988 -17.49609375 63.55859375 C-18.43130859 63.59146484 -19.36652344 63.62433594 -20.33007812 63.65820312 C-22.31434031 63.71927734 -24.29872211 63.77658455 -26.28320312 63.83007812 C-27.21970703 63.86423828 -28.15621094 63.89839844 -29.12109375 63.93359375 C-29.98404053 63.9586499 -30.8469873 63.98370605 -31.73608398 64.00952148 C-34.08715517 64.12402467 -34.08715517 64.12402467 -35.875 66.3125 C-36.07379122 69.21355708 -36.14766435 72.01917453 -36.13378906 74.92138672 C-36.1372937 75.81258209 -36.14079834 76.70377747 -36.14440918 77.62197876 C-36.15323777 80.57879341 -36.14737238 83.53537026 -36.140625 86.4921875 C-36.14197157 88.54240973 -36.14391202 90.59263165 -36.14642334 92.64285278 C-36.14937633 96.94536369 -36.14507223 101.24779168 -36.13574219 105.55029297 C-36.12436192 111.06748514 -36.13089701 116.58448243 -36.14288712 122.1016674 C-36.15011323 126.33783436 -36.14781406 130.5739551 -36.14263153 134.81012344 C-36.14129637 136.84431099 -36.14293807 138.87850273 -36.14759064 140.91268539 C-36.15266657 143.75684467 -36.14492986 146.60068845 -36.13378906 149.44482422 C-36.13783752 150.28756897 -36.14188599 151.13031372 -36.14605713 151.99859619 C-36.19151384 157.49886534 -36.19151384 157.49886534 -33.875 162.3125 C-31.28087245 163.41079248 -31.28087245 163.41079248 -28.3125 164 C-22.93601695 165.25148305 -22.93601695 165.25148305 -21.875 166.3125 C-21.75 168.8125 -21.75 168.8125 -21.875 171.3125 C-22.875 172.3125 -22.875 172.3125 -25.15919495 172.43275452 C-26.16957321 172.43053391 -27.17995148 172.42831329 -28.22094727 172.42602539 C-29.3620546 172.42594986 -30.50316193 172.42587433 -31.67884827 172.42579651 C-32.9204924 172.42063522 -34.16213654 172.41547394 -35.44140625 172.41015625 C-37.33704567 172.40803383 -37.33704567 172.40803383 -39.27098083 172.40586853 C-42.63624889 172.40120582 -46.0014499 172.3922148 -49.36669922 172.38116455 C-52.7984967 172.37094846 -56.23030109 172.36637049 -59.66210938 172.36132812 C-66.39975824 172.3502738 -73.13737525 172.3335171 -79.875 172.3125 C-79.875 170.3325 -79.875 168.3525 -79.875 166.3125 C-79.17632812 166.05855469 -78.47765625 165.80460938 -77.7578125 165.54296875 C-76.84773438 165.19878906 -75.93765625 164.85460937 -75 164.5 C-74.09507812 164.16355469 -73.19015625 163.82710937 -72.2578125 163.48046875 C-69.58074151 162.41600976 -69.58074151 162.41600976 -67.875 159.3125 C-67.66096616 156.26321559 -67.56366309 153.30231561 -67.55615234 150.2512207 C-67.54610672 149.32419342 -67.5360611 148.39716614 -67.52571106 147.44204712 C-67.49478989 144.37413154 -67.47781907 141.30630358 -67.4609375 138.23828125 C-67.44223304 136.11263775 -67.42266018 133.98700173 -67.4022522 131.8613739 C-67.35084871 126.2636658 -67.31126696 120.66593361 -67.27410889 115.06811523 C-67.23412072 109.35719808 -67.18300475 103.64638186 -67.1328125 97.93554688 C-67.03595593 86.72793541 -66.9515823 75.52026705 -66.875 64.3125 C-67.80183594 64.25191406 -68.72867187 64.19132812 -69.68359375 64.12890625 C-71.47990234 64.00322266 -71.47990234 64.00322266 -73.3125 63.875 C-75.10494141 63.75318359 -75.10494141 63.75318359 -76.93359375 63.62890625 C-79.875 63.3125 -79.875 63.3125 -80.875 62.3125 C-81.125 59.375 -81.125 59.375 -80.875 56.3125 C-77.45405758 54.03187172 -76.19312778 54.09324993 -72.1875 54.1875 C-71.19363281 54.20554687 -70.19976562 54.22359375 -69.17578125 54.2421875 C-68.03689453 54.27699219 -68.03689453 54.27699219 -66.875 54.3125 C-66.89820313 53.36890625 -66.92140625 52.4253125 -66.9453125 51.453125 C-67.18695335 34.26210459 -64.65427964 20.42112621 -52.296875 7.50390625 C-48.48391577 4.05379314 -44.48959402 1.55324037 -39.875 -0.6875 C-39.215 -1.02652344 -38.555 -1.36554688 -37.875 -1.71484375 C-26.96693153 -6.33798996 -10.53626027 -5.06174978 0 0 Z"/>
<path transform="translate(856,394)" fill="#D8D8D7" d="M0 0 C0.13260683 14.43367325 0.26305133 28.86736482 0.39115143 43.3010788 C0.45072252 50.00802003 0.5109605 56.71495376 0.57275391 63.421875 C0.63245943 69.90752918 0.69057937 76.39319569 0.74740601 82.87887573 C0.76995938 85.43773767 0.7929286 87.99659598 0.8163147 90.55545044 C0.93088904 103.20289786 1.02485426 115.84813909 0.9609375 128.49609375 C0.9569268 129.44445351 0.95291611 130.39281326 0.94878387 131.36991119 C0.929511 135.6902057 0.90004747 140.00991105 0.84973145 144.32995605 C0.84024007 145.8169738 0.83106327 147.30399361 0.82226562 148.79101562 C0.80860962 150.05030884 0.79495361 151.30960205 0.78088379 152.60705566 C1.00776943 156.12030717 1.58387423 158.7805438 3 162 C6.68734758 164.45823172 9.69699971 165.01242616 14 166 C14 166.99 14 167.98 14 169 C14.66 169.33 15.32 169.66 16 170 C15.34 170.99 14.68 171.98 14 173 C11.6335144 173.36076355 11.6335144 173.36076355 8.63232422 173.34057617 C7.51131317 173.34034958 6.39030212 173.34012299 5.23532104 173.33988953 C4.02071198 173.32440567 2.80610291 173.30892181 1.5546875 173.29296875 C0.31453888 173.28872391 -0.92560974 173.28447906 -2.20333862 173.28010559 C-5.50135463 173.26613216 -8.7989335 173.23917361 -12.09680176 173.20599365 C-15.46161542 173.17531238 -18.82649304 173.16160446 -22.19140625 173.14648438 C-28.79444271 173.1133473 -35.39718558 173.06309697 -42 173 C-42.93423645 169.98968256 -43.04449911 169.13349732 -42 166 C-40.00390625 164.9375 -40.00390625 164.9375 -37.5625 164 C-34.02469848 162.63712301 -33.19275781 162.28913671 -31 159 C-30.700295 156.29969676 -30.700295 156.29969676 -30.75276184 153.19935608 C-30.74856735 151.98937454 -30.74437286 150.77939301 -30.74005127 149.53274536 C-30.74553484 148.18987957 -30.75121782 146.84701458 -30.75708008 145.50415039 C-30.75600726 144.09149589 -30.75406858 142.67884182 -30.75132751 141.26618958 C-30.74647555 137.42733474 -30.75413962 133.58859595 -30.76428056 129.74975514 C-30.7730576 125.73441145 -30.77130366 121.71907143 -30.7709198 117.70372009 C-30.77185674 110.95911719 -30.78054406 104.21455924 -30.79418945 97.4699707 C-30.80990892 89.67139302 -30.81518778 81.8728646 -30.8144539 74.07427222 C-30.81384349 66.57514198 -30.81895055 59.0760278 -30.82724571 51.57690239 C-30.83077682 48.38441276 -30.83260872 45.19192882 -30.83313942 41.99943733 C-30.83414412 38.2393927 -30.84025124 34.47938942 -30.85030556 30.71935844 C-30.85322599 29.33907703 -30.85445685 27.95879085 -30.85387802 26.57850647 C-30.85338704 24.69487569 -30.85966322 22.81124676 -30.86628723 20.92762756 C-30.86796308 19.87330567 -30.86963892 18.81898378 -30.87136555 17.73271275 C-30.92172573 14.75591851 -30.92172573 14.75591851 -32 11 C-37.94 10.01 -37.94 10.01 -44 9 C-44.33 7.02 -44.66 5.04 -45 3 C-38.99488718 0.39460714 -32.87147214 0.55097189 -26.4375 0.375 C-24.78137695 0.31699219 -24.78137695 0.31699219 -23.09179688 0.2578125 C-15.39259951 0.00611661 -7.70272002 -0.01542122 0 0 Z"/>
<path transform="translate(652,447)" fill="#D8D8D8" d="M0 0 C0.00586624 1.30434494 0.01173248 2.60868988 0.01777649 3.95256042 C0.0749659 16.23910618 0.1477079 28.5254743 0.23571491 40.8118391 C0.2804604 47.12853408 0.31970749 53.44516394 0.34643555 59.76196289 C0.37242655 65.85694448 0.41279958 71.95167603 0.46318626 78.04650307 C0.47988336 80.37289637 0.49137988 82.69933295 0.49761391 85.02577782 C0.50722385 88.28201954 0.53524689 91.5376174 0.56762695 94.79370117 C0.56619186 95.75755234 0.56475677 96.7214035 0.5632782 97.71446228 C0.6319108 102.5882041 0.73729343 106.09107044 4 110 C6.19633198 111.18690058 6.19633198 111.18690058 8.625 111.75 C12.95515695 112.95515695 12.95515695 112.95515695 14 114 C14.125 116.5 14.125 116.5 14 119 C13 120 13 120 10.71580505 120.12025452 C9.70542679 120.11803391 8.69504852 120.11581329 7.65405273 120.11352539 C6.5129454 120.11344986 5.37183807 120.11337433 4.19615173 120.11329651 C2.9545076 120.10813522 1.71286346 120.10297394 0.43359375 120.09765625 C-1.46204567 120.09553383 -1.46204567 120.09553383 -3.39598083 120.09336853 C-6.76124889 120.08870582 -10.1264499 120.0797148 -13.49169922 120.06866455 C-16.9234967 120.05844846 -20.35530109 120.05387049 -23.78710938 120.04882812 C-30.52475824 120.0377738 -37.26237525 120.0210171 -44 120 C-43.41337836 117.64526776 -42.74084539 115.31085201 -42 113 C-39.6171875 111.66015625 -39.6171875 111.66015625 -36.875 111.0625 C-35.96492187 110.84722656 -35.05484375 110.63195312 -34.1171875 110.41015625 C-33.41851563 110.27480469 -32.71984375 110.13945313 -32 110 C-30.86968094 105.48573608 -30.85886651 101.05576407 -30.87060547 96.43359375 C-30.86885315 95.58258087 -30.86710083 94.73156799 -30.86529541 93.85476685 C-30.86090353 91.04899033 -30.86380552 88.24327713 -30.8671875 85.4375 C-30.8665137 83.48364246 -30.86554303 81.52978499 -30.86428833 79.57592773 C-30.86281497 75.48387859 -30.86495433 71.39185129 -30.86962891 67.29980469 C-30.87532597 62.05749268 -30.87204503 56.81523188 -30.86605644 51.57292175 C-30.8624411 47.53918065 -30.86359391 43.50545167 -30.86618423 39.47171021 C-30.8668508 37.53882847 -30.8660345 35.60594563 -30.86370468 33.67306519 C-30.86116222 30.97081594 -30.86504128 28.26864935 -30.87060547 25.56640625 C-30.86858124 24.76937286 -30.86655701 23.97233948 -30.86447144 23.15115356 C-30.87945259 19.21918939 -31.22127092 15.89364539 -32 12 C-37.94 10.515 -37.94 10.515 -44 9 C-44 7.02 -44 5.04 -44 3 C-40.83541864 1.41770932 -37.37001526 1.49374276 -33.88671875 1.2109375 C-33.08015335 1.14339264 -32.27358795 1.07584778 -31.44258118 1.0062561 C-29.73378933 0.8646454 -28.02481261 0.72525076 -26.31567383 0.58789062 C-23.70774658 0.37664004 -21.10101053 0.15356321 -18.49414062 -0.0703125 C-16.83339267 -0.20645498 -15.17258691 -0.34189444 -13.51171875 -0.4765625 C-12.3458448 -0.57803085 -12.3458448 -0.57803085 -11.15641785 -0.68154907 C-7.20279493 -0.98811726 -3.85419087 -0.8704821 0 0 Z"/>
<path transform="translate(259,447)" fill="#D8D8D8" d="M0 0 C0.00331015 0.54868398 0.00662029 1.09736795 0.01003075 1.66267872 C0.09121912 15.00779917 0.1834236 28.35280425 0.28752708 41.6977663 C0.33753632 48.15127208 0.38386596 54.60476111 0.421875 61.05834961 C0.4586693 67.28294978 0.50501328 73.50741142 0.55806351 79.73189354 C0.57663863 82.11018641 0.59173497 84.48850901 0.60334396 86.86684608 C0.62015301 90.19042869 0.64917528 93.51369186 0.68115234 96.8371582 C0.68331253 97.8269014 0.68547272 98.81664459 0.68769836 99.83638 C0.69886185 100.74081848 0.71002533 101.64525696 0.7215271 102.57710266 C0.72705786 103.36339208 0.73258862 104.14968149 0.73828697 104.95979786 C0.88629668 107.31079779 0.88629668 107.31079779 3 110 C5.17897492 111.00805555 5.17897492 111.00805555 7.625 111.6875 C8.44226563 111.93886719 9.25953125 112.19023438 10.1015625 112.44921875 C10.72804688 112.63097656 11.35453125 112.81273437 12 113 C12.38133299 114.9914056 12.71325582 116.99279077 13 119 C12 120 12 120 9.79173279 120.12025452 C8.81688431 120.11803391 7.84203583 120.11581329 6.83764648 120.11352539 C5.73658066 120.11344986 4.63551483 120.11337433 3.50108337 120.11329651 C2.3031868 120.10813522 1.10529022 120.10297394 -0.12890625 120.09765625 C-1.34827377 120.0962413 -2.5676413 120.09482635 -3.82395935 120.09336853 C-7.7368307 120.08774967 -11.64964581 120.07519396 -15.5625 120.0625 C-18.20768147 120.05748743 -20.85286383 120.0529241 -23.49804688 120.04882812 C-29.99871726 120.03777411 -36.49935461 120.02101764 -43 120 C-43.59375 118.12890625 -43.59375 118.12890625 -44 116 C-41.77932368 112.94657007 -39.8857087 111.95270705 -36.375 110.5 C-33.07180708 109.35624167 -33.07180708 109.35624167 -31.804245 107.42782593 C-30.62393254 103.86474106 -30.73066894 100.3663305 -30.75708008 96.65478516 C-30.75518173 95.81527817 -30.75328339 94.97577118 -30.75132751 94.11082458 C-30.74762429 91.33680874 -30.75831967 88.56305507 -30.76953125 85.7890625 C-30.7707237 83.85859203 -30.77117608 81.92812097 -30.7709198 79.99765015 C-30.77248402 75.95087045 -30.78076753 71.90417929 -30.79418945 67.85742188 C-30.81115635 62.67682822 -30.81500434 57.49633207 -30.81424427 52.31571388 C-30.81451661 48.32824782 -30.82000855 44.34080296 -30.82724571 40.35334396 C-30.83042255 38.44361913 -30.83239748 36.53389191 -30.83313942 34.62416458 C-30.83531473 31.95073637 -30.84408531 29.27741009 -30.85473633 26.60400391 C-30.85428314 25.81834549 -30.85382996 25.03268707 -30.85336304 24.22322083 C-30.87810749 19.96182894 -31.29125324 16.25248058 -32 12 C-37.94 10.515 -37.94 10.515 -44 9 C-44 7.02 -44 5.04 -44 3 C-40.83541864 1.41770932 -37.37001526 1.49374276 -33.88671875 1.2109375 C-33.08015335 1.14339264 -32.27358795 1.07584778 -31.44258118 1.0062561 C-29.73378933 0.8646454 -28.02481261 0.72525076 -26.31567383 0.58789062 C-23.70774658 0.37664004 -21.10101053 0.15356321 -18.49414062 -0.0703125 C-16.83339267 -0.20645498 -15.17258691 -0.34189444 -13.51171875 -0.4765625 C-12.3458448 -0.57803085 -12.3458448 -0.57803085 -11.15641785 -0.68154907 C-7.20279493 -0.98811726 -3.85419087 -0.8704821 0 0 Z"/>
<path transform="translate(889,448)" fill="#D8D8D7" d="M0 0 C15.18 0 30.36 0 46 0 C46.495 3.465 46.495 3.465 47 7 C44.88201113 9.11798887 40.35097435 8.63921121 37.46875 8.9140625 C27.63373045 11.99304385 20.31800343 21.43658378 13.25 28.625 C12.22573737 29.6593267 11.20100014 30.69318364 10.17578125 31.7265625 C8.2929389 33.62555827 6.41345428 35.52765467 4.53613281 37.43212891 C2.0343786 39.96519117 -0.48000454 42.48509658 -3 45 C-1.37294581 50.08080112 1.67748749 53.95251515 4.8125 58.1875 C5.99489999 59.8046083 7.17718856 61.42179808 8.359375 63.0390625 C8.96458984 63.8630957 9.56980469 64.68712891 10.19335938 65.53613281 C13.00108158 69.36525882 15.78257084 73.21317277 18.5625 77.0625 C19.09319092 77.7956543 19.62388184 78.52880859 20.1706543 79.28417969 C22.93255436 83.10660573 25.67118419 86.94366194 28.37890625 90.8046875 C28.92409912 91.58191162 29.46929199 92.35913574 30.03100586 93.15991211 C31.06721749 94.64050919 32.10073657 96.12299561 33.13110352 97.60766602 C33.82804321 98.60431274 33.82804321 98.60431274 34.5390625 99.62109375 C34.94334473 100.2030249 35.34762695 100.78495605 35.76416016 101.38452148 C36.98739655 103.06868562 36.98739655 103.06868562 38.65380859 104.58618164 C40 106 40 106 40 108 C40.680625 108.268125 41.36125 108.53625 42.0625 108.8125 C45.39710809 110.16053306 48.69743237 111.57536298 52 113 C52 114.98 52 116.96 52 119 C47.91073151 119.0750148 43.82173793 119.12900317 39.73193359 119.16479492 C38.34514373 119.17973947 36.95839993 119.20010278 35.57177734 119.22631836 C14.79477701 119.60885519 14.79477701 119.60885519 7.50244141 112.75390625 C3.82869374 108.46528044 0.79186555 103.70620714 -2.3125 99 C-3.07536183 97.85815481 -3.83920189 96.71696259 -4.60400391 95.57641602 C-6.08972879 93.35945642 -7.57121991 91.13988359 -9.05029297 88.91845703 C-11.29016891 85.56565501 -13.57032816 82.24602164 -15.875 78.9375 C-19.28644436 74.03145428 -22.67853611 69.1125204 -26.0625 64.1875 C-26.55282715 63.47392334 -27.0431543 62.76034668 -27.54833984 62.02514648 C-28.69906723 60.35021719 -29.84955998 58.67512669 -31 57 C-29.42923465 53.15340985 -26.9676316 50.79729615 -24 47.9375 C-21.31789712 45.34506045 -19.07210825 43.10816238 -17 40 C-16.34 40 -15.68 40 -15 40 C-14.77707275 39.44892578 -14.55414551 38.89785156 -14.32446289 38.33007812 C-12.57969909 35.2605803 -10.34420161 33.17516732 -7.80859375 30.71875 C-6.7713699 29.70193967 -5.73426408 28.68500894 -4.69726562 27.66796875 C-3.06471956 26.07897365 -1.42978135 24.49253447 0.20776367 22.90869141 C1.79208329 21.37265536 3.36708128 19.82751844 4.94140625 18.28125 C5.88701416 17.36408203 6.83262207 16.44691406 7.80688477 15.50195312 C9.85086054 13.17014151 10.66710633 12.02389471 11 9 C10.30132813 8.95101563 9.60265625 8.90203125 8.8828125 8.8515625 C7.97273437 8.77679688 7.06265625 8.70203125 6.125 8.625 C5.22007812 8.55539062 4.31515625 8.48578125 3.3828125 8.4140625 C1 8 1 8 -1 6 C-0.67 4.02 -0.34 2.04 0 0 Z"/>
<path transform="translate(644.328125,396.94140625)" fill="#D8D8D7" d="M0 0 C4.76032566 2.81211831 7.43464983 5.68434328 9.359375 10.93359375 C10.22446497 16.81620553 9.98949897 21.02864773 6.671875 26.05859375 C2.34469625 30.43692119 -1.18635634 33.15825109 -7.515625 33.37109375 C-12.52498229 33.30582525 -16.2386296 31.92679188 -20.328125 29.05859375 C-24.69302287 24.46985497 -25.69580206 20.63539564 -25.60546875 14.47265625 C-24.95950792 8.85006762 -22.64612062 5.10761068 -18.265625 1.62109375 C-12.53391665 -1.42768729 -6.17028273 -2.49503043 0 0 Z"/>
<path transform="translate(251.75,397)" fill="#D8D8D8" d="M0 0 C5.10869251 3.14381078 7.31025167 7.29822355 9.25 12.875 C9.25 18.11170773 8.27550029 23.5614787 4.8515625 27.68359375 C0.00114132 31.83230425 -4.09883444 33.47140442 -10.37109375 33.31640625 C-15.6801175 32.61027994 -19.53880425 30.27330835 -23.1875 26.4375 C-26.32810018 21.53816372 -26.35989857 16.65229942 -25.75 11 C-23.98615206 5.65806053 -20.60587731 2.68623 -15.75 0 C-10.39072376 -1.78642541 -5.4221493 -1.44590648 0 0 Z"/>
<path transform="translate(596,552)" fill="#CFCFCE" d="M0 0 C0.33 0 0.66 0 1 0 C1.22566098 1.37226269 1.42959874 2.74810272 1.625 4.125 C1.74101563 4.89070312 1.85703125 5.65640625 1.9765625 6.4453125 C2 9 2 9 0 15 C-38.28 15 -76.56 15 -116 15 C-116 13.02 -116 11.04 -116 9 C-115.67 9 -115.34 9 -115 9 C-115 10.65 -115 12.3 -115 14 C-77.38 14 -39.76 14 -1 14 C-0.67 9.38 -0.34 4.76 0 0 Z"/>
<path transform="translate(889,448)" fill="#CECECD" d="M0 0 C15.18 0 30.36 0 46 0 C46.495 3.465 46.495 3.465 47 7 C46 8 46 8 43.93359375 8.09765625 C43.10988281 8.08605469 42.28617188 8.07445312 41.4375 8.0625 C40.61121094 8.05347656 39.78492188 8.04445313 38.93359375 8.03515625 C38.29550781 8.02355469 37.65742187 8.01195312 37 8 C37 7.67 37 7.34 37 7 C39.31 7 41.62 7 44 7 C43.505 4.525 43.505 4.525 43 2 C29.14 1.67 15.28 1.34 1 1 C1 2.65 1 4.3 1 6 C3.64 6.33 6.28 6.66 9 7 C9 7.33 9 7.66 9 8 C2.9453125 8.1953125 2.9453125 8.1953125 1 8 C0.34 7.34 -0.32 6.68 -1 6 C-0.67 4.02 -0.34 2.04 0 0 Z"/>
<path transform="translate(617.125,448.9375)" fill="#D1D1D0" d="M0 0 C1.28132812 0.00902344 2.56265625 0.01804687 3.8828125 0.02734375 C4.87023437 0.03894531 5.85765625 0.05054688 6.875 0.0625 C6.875 0.3925 6.875 0.7225 6.875 1.0625 C6.11574219 1.08828125 5.35648438 1.1140625 4.57421875 1.140625 C3.58035156 1.19734375 2.58648438 1.2540625 1.5625 1.3125 C0.57636719 1.35890625 -0.40976562 1.4053125 -1.42578125 1.453125 C-4.26440092 1.82220238 -4.26440092 1.82220238 -5.98046875 4.109375 C-6.54701172 5.07617188 -6.54701172 5.07617188 -7.125 6.0625 C-4.155 6.5575 -4.155 6.5575 -1.125 7.0625 C-4.17763664 8.04370464 -6.07236336 8.04370464 -9.125 7.0625 C-9.125 5.0825 -9.125 3.1025 -9.125 1.0625 C-6.12186252 -0.43906874 -3.33432478 -0.03031204 0 0 Z"/>
<path transform="translate(285,560)" fill="#CFCFCE" d="M0 0 C0.99 0.33 1.98 0.66 3 1 C2.34 1 1.68 1 1 1 C1 1.66 1 2.32 1 3 C1.66 3.33 2.32 3.66 3 4 C2.34 4 1.68 4 1 4 C1 4.66 1 5.32 1 6 C4.63 6 8.26 6 12 6 C12 6.33 12 6.66 12 7 C7.71 7 3.42 7 -1 7 C-1 1 -1 1 0 0 Z"/>
<path transform="translate(0,0)" fill="#DADBDA" d=""/>
<path transform="translate(0,0)" fill="#DADADA" d=""/>
<path transform="translate(0,0)" fill="#DADADA" d=""/>
<path transform="translate(243,431)" fill="#DAD9D9" d="M0 0 C3 1 3 1 3 1 Z"/>
<path transform="translate(0,0)" fill="#DCDBDB" d=""/>
<path transform="translate(0,0)" fill="#DBDBDA" d=""/>
<path transform="translate(0,0)" fill="#D8D9D9" d=""/>
<path transform="translate(0,0)" fill="#D9D9DB" d=""/>
<path transform="translate(438,448)" fill="#D8D7D6" d="M0 0 C2 1 2 1 2 1 Z"/>
<path transform="translate(0,0)" fill="#D8D8D7" d=""/>
<path transform="translate(0,0)" fill="#747574" d=""/>
<path transform="translate(0,0)" fill="#D4D4D6" d=""/>
<path transform="translate(0,0)" fill="#D2D4D3" d=""/>
<path transform="translate(0,0)" fill="#D6D7D7" d=""/>
<path transform="translate(0,0)" fill="#CECDCB" d=""/>
<path transform="translate(0,0)" fill="#D6D5D6" d=""/>
<path transform="translate(0,0)" fill="#D3D5D0" d=""/>
<path transform="translate(0,0)" fill="#D8D7D6" d=""/>
<path transform="translate(0,0)" fill="#D7D8D9" d=""/>
<path transform="translate(0,0)" fill="#D9D8D8" d=""/>
<path transform="translate(0,0)" fill="#D8D8D8" d=""/>
<path transform="translate(0,0)" fill="#D8DBDA" d=""/>
<path transform="translate(0,0)" fill="#D7D8D9" d=""/>
<path transform="translate(0,0)" fill="#D9DBDB" d=""/>
<path transform="translate(0,0)" fill="#DBDBDB" d=""/>
<path transform="translate(0,0)" fill="#D9D9D9" d=""/>
<path transform="translate(0,0)" fill="#DAD8D8" d=""/>
<path transform="translate(0,0)" fill="#D8DADA" d=""/>
<path transform="translate(0,0)" fill="#D9D8D9" d=""/>
<path transform="translate(0,0)" fill="#D9D7DB" d=""/>
<path transform="translate(0,0)" fill="#DBDCDA" d=""/>
<path transform="translate(0,0)" fill="#D9D9DB" d=""/>
<path transform="translate(0,0)" fill="#DAD9DB" d=""/>
<path transform="translate(0,0)" fill="#D9DCDC" d=""/>
<path transform="translate(0,0)" fill="#DDDADC" d=""/>
<path transform="translate(0,0)" fill="#D9DADB" d=""/>
<path transform="translate(0,0)" fill="#DBDBDB" d=""/>
<path transform="translate(0,0)" fill="#DADBDB" d=""/>
<path transform="translate(0,0)" fill="#D9D8D8" d=""/>
<path transform="translate(0,0)" fill="#DBDADB" d=""/>
<path transform="translate(0,0)" fill="#D9DADC" d=""/>
<path transform="translate(0,0)" fill="#D9DBD9" d=""/>
<path transform="translate(0,0)" fill="#DADADA" d=""/>
<path transform="translate(0,0)" fill="#D8DADA" d=""/>
<path transform="translate(0,0)" fill="#DDDCDB" d=""/>
<path transform="translate(0,0)" fill="#D9D8DA" d=""/>
<path transform="translate(0,0)" fill="#DBDADB" d=""/>
<path transform="translate(0,0)" fill="#DBDCDB" d=""/>
<path transform="translate(0,0)" fill="#DCD8D8" d=""/>
<path transform="translate(0,0)" fill="#DBDBDC" d=""/>
<path transform="translate(0,0)" fill="#D7DAD7" d=""/>
<path transform="translate(0,0)" fill="#D7DAD8" d=""/>
<path transform="translate(0,0)" fill="#D9D9DA" d=""/>
<path transform="translate(0,0)" fill="#DBD9D9" d=""/>
<path transform="translate(0,0)" fill="#DADADB" d=""/>
<path transform="translate(0,0)" fill="#D9DBDA" d=""/>
<path transform="translate(0,0)" fill="#DAD9DA" d=""/>
<path transform="translate(0,0)" fill="#D9D9D8" d=""/>
<path transform="translate(0,0)" fill="#DCD9D9" d=""/>
<path transform="translate(0,0)" fill="#D9D9D9" d=""/>
<path transform="translate(0,0)" fill="#DCDBDC" d=""/>
<path transform="translate(0,0)" fill="#D8D7D7" d=""/>
<path transform="translate(0,0)" fill="#D5D7D8" d=""/>
<path transform="translate(0,0)" fill="#DADAD9" d=""/>
<path transform="translate(0,0)" fill="#D7D9D8" d=""/>
<path transform="translate(0,0)" fill="#D9DAD9" d=""/>
<path transform="translate(0,0)" fill="#D5D5D3" d=""/>
</svg>